<svg width="2044" height="729" viewBox="0 0 2044 729" fill="none" xmlns="http://www.w3.org/2000/svg">
<g clip-path="url(#clip0_29854_2329)">
<path opacity="0.2" d="M1073 0L2343 728.783" stroke="white" stroke-opacity="0.4"/>
<path opacity="0.2" d="M998.294 42.8691L2268.29 771.652" stroke="white" stroke-opacity="0.4"/>
<path opacity="0.2" d="M923.588 85.7383L2193.59 814.521" stroke="white" stroke-opacity="0.4"/>
<path opacity="0.2" d="M848.882 128.609L2118.88 857.392" stroke="white" stroke-opacity="0.4"/>
<path opacity="0.2" d="M774.176 171.479L2044.18 900.261" stroke="white" stroke-opacity="0.4"/>
<path opacity="0.2" d="M699.471 214.348L1969.47 943.13" stroke="white" stroke-opacity="0.4"/>
<path opacity="0.2" d="M624.765 257.217L1894.76 985.999" stroke="white" stroke-opacity="0.4"/>
<path opacity="0.2" d="M550.058 300.088L1820.06 1028.87" stroke="white" stroke-opacity="0.4"/>
<path opacity="0.2" d="M475.352 342.957L1745.35 1071.74" stroke="white" stroke-opacity="0.4"/>
<path opacity="0.2" d="M400.647 385.826L1670.65 1114.61" stroke="white" stroke-opacity="0.4"/>
<path opacity="0.2" d="M325.941 428.695L1595.94 1157.48" stroke="white" stroke-opacity="0.4"/>
<path opacity="0.2" d="M251.236 471.564L1521.24 1200.35" stroke="white" stroke-opacity="0.4"/>
<path opacity="0.2" d="M176.529 514.436L1446.53 1243.22" stroke="white" stroke-opacity="0.4"/>
<path opacity="0.2" d="M101.823 557.305L1371.82 1286.09" stroke="white" stroke-opacity="0.4"/>
<path opacity="0.2" d="M27.1169 600.174L1297.12 1328.96" stroke="white" stroke-opacity="0.4"/>
<path opacity="0.2" d="M-47.5886 643.043L1222.41 1371.83" stroke="white" stroke-opacity="0.4"/>
<path opacity="0.2" d="M-122.294 685.914L1147.71 1414.7" stroke="white" stroke-opacity="0.4"/>
<path opacity="0.2" d="M-197 728.783L1073 1457.57" stroke="white" stroke-opacity="0.4"/>
<path opacity="0.2" d="M1222.41 85.7383L-47.5882 814.521" stroke="white" stroke-opacity="0.4"/>
<path opacity="0.2" d="M1297.12 128.609L27.1177 857.392" stroke="white" stroke-opacity="0.4"/>
<path opacity="0.2" d="M1371.82 171.479L101.823 900.261" stroke="white" stroke-opacity="0.4"/>
<path opacity="0.2" d="M1446.53 214.348L176.529 943.13" stroke="white" stroke-opacity="0.4"/>
<path opacity="0.2" d="M1521.23 257.217L251.235 985.999" stroke="white" stroke-opacity="0.4"/>
<path opacity="0.2" d="M1595.94 300.088L325.941 1028.87" stroke="white" stroke-opacity="0.4"/>
<path opacity="0.2" d="M1670.65 342.957L400.647 1071.74" stroke="white" stroke-opacity="0.4"/>
<path opacity="0.2" d="M1745.34 385.826L475.338 1114.61" stroke="white" stroke-opacity="0.4"/>
<path opacity="0.2" d="M1820.04 428.695L550.044 1157.48" stroke="white" stroke-opacity="0.4"/>
<path opacity="0.2" d="M1894.75 471.564L624.75 1200.35" stroke="white" stroke-opacity="0.4"/>
<path opacity="0.2" d="M1969.46 514.436L699.456 1243.22" stroke="white" stroke-opacity="0.4"/>
<path opacity="0.2" d="M2044.16 557.305L774.161 1286.09" stroke="white" stroke-opacity="0.4"/>
<path opacity="0.2" d="M2118.87 600.174L848.867 1328.96" stroke="white" stroke-opacity="0.4"/>
<path opacity="0.2" d="M2193.57 643.043L923.573 1371.83" stroke="white" stroke-opacity="0.4"/>
<rect x="605" y="625" width="1439" height="104" fill="url(#paint0_linear_29854_2329)"/>
</g>
<defs>
<linearGradient id="paint0_linear_29854_2329" x1="1324.5" y1="625" x2="1324.5" y2="729" gradientUnits="userSpaceOnUse">
<stop stop-color="#18181B" stop-opacity="0"/>
<stop offset="0.540438" stop-color="#18181B" stop-opacity="0.92"/>
<stop offset="1" stop-color="#18181B"/>
</linearGradient>
<clipPath id="clip0_29854_2329">
<rect width="2044" height="729" fill="white"/>
</clipPath>
</defs>
</svg>
