<svg width="3007" height="729" viewBox="0 0 3007 729" fill="none" xmlns="http://www.w3.org/2000/svg">
<g clip-path="url(#clip0_29830_2259)">
<path opacity="0.2" d="M1496.81 0L2993.61 728.783" stroke="white" stroke-opacity="0.4"/>
<path opacity="0.2" d="M1408.76 42.8691L2905.57 771.652" stroke="white" stroke-opacity="0.4"/>
<path opacity="0.2" d="M1320.71 85.7383L2817.52 814.521" stroke="white" stroke-opacity="0.4"/>
<path opacity="0.2" d="M1232.66 128.609L2729.47 857.392" stroke="white" stroke-opacity="0.4"/>
<path opacity="0.2" d="M1144.62 171.479L2641.42 900.261" stroke="white" stroke-opacity="0.4"/>
<path opacity="0.2" d="M1056.57 214.348L2553.38 943.13" stroke="white" stroke-opacity="0.4"/>
<path opacity="0.2" d="M968.522 257.217L2465.33 986" stroke="white" stroke-opacity="0.4"/>
<path opacity="0.2" d="M880.474 300.088L2377.28 1028.87" stroke="white" stroke-opacity="0.4"/>
<path opacity="0.2" d="M792.426 342.957L2289.23 1071.74" stroke="white" stroke-opacity="0.4"/>
<path opacity="0.2" d="M704.38 385.826L2201.19 1114.61" stroke="white" stroke-opacity="0.4"/>
<path opacity="0.2" d="M616.332 428.695L2113.14 1157.48" stroke="white" stroke-opacity="0.4"/>
<path opacity="0.2" d="M528.285 471.564L2025.09 1200.35" stroke="white" stroke-opacity="0.4"/>
<path opacity="0.2" d="M440.237 514.436L1937.04 1243.22" stroke="white" stroke-opacity="0.4"/>
<path opacity="0.2" d="M352.188 557.305L1849 1286.09" stroke="white" stroke-opacity="0.4"/>
<path opacity="0.2" d="M264.142 600.174L1760.95 1328.96" stroke="white" stroke-opacity="0.4"/>
<path opacity="0.2" d="M176.095 643.043L1672.9 1371.83" stroke="white" stroke-opacity="0.4"/>
<path opacity="0.2" d="M88.0474 685.914L1584.85 1414.7" stroke="white" stroke-opacity="0.4"/>
<path opacity="0.2" d="M0 728.783L1496.81 1457.57" stroke="white" stroke-opacity="0.4"/>
<path opacity="0.2" d="M1672.9 85.7383L176.095 814.521" stroke="white" stroke-opacity="0.4"/>
<path opacity="0.2" d="M1760.95 128.609L264.142 857.392" stroke="white" stroke-opacity="0.4"/>
<path opacity="0.2" d="M1849 171.479L352.189 900.261" stroke="white" stroke-opacity="0.4"/>
<path opacity="0.2" d="M1937.04 214.348L440.237 943.13" stroke="white" stroke-opacity="0.4"/>
<path opacity="0.2" d="M2025.09 257.217L528.284 986" stroke="white" stroke-opacity="0.4"/>
<path opacity="0.2" d="M2113.14 300.088L616.332 1028.87" stroke="white" stroke-opacity="0.4"/>
<path opacity="0.2" d="M2201.19 342.957L704.379 1071.74" stroke="white" stroke-opacity="0.4"/>
<path opacity="0.2" d="M2289.22 385.826L792.41 1114.61" stroke="white" stroke-opacity="0.4"/>
<path opacity="0.2" d="M2377.26 428.695L880.457 1157.48" stroke="white" stroke-opacity="0.4"/>
<path opacity="0.2" d="M2465.31 471.564L968.504 1200.35" stroke="white" stroke-opacity="0.4"/>
<path opacity="0.2" d="M2553.36 514.436L1056.55 1243.22" stroke="white" stroke-opacity="0.4"/>
<path opacity="0.2" d="M2641.41 557.305L1144.6 1286.09" stroke="white" stroke-opacity="0.4"/>
<path opacity="0.2" d="M2729.45 600.174L1232.65 1328.96" stroke="white" stroke-opacity="0.4"/>
<path opacity="0.2" d="M2817.5 643.043L1320.69 1371.83" stroke="white" stroke-opacity="0.4"/>
<rect x="1568" y="625" width="1439" height="104" fill="url(#paint0_linear_29830_2259)"/>
</g>
<defs>
<linearGradient id="paint0_linear_29830_2259" x1="2287.5" y1="625" x2="2287.5" y2="729" gradientUnits="userSpaceOnUse">
<stop stop-color="#18181B" stop-opacity="0"/>
<stop offset="0.540438" stop-color="#18181B" stop-opacity="0.92"/>
<stop offset="1" stop-color="#18181B"/>
</linearGradient>
<clipPath id="clip0_29830_2259">
<rect width="3007" height="729" fill="white"/>
</clipPath>
</defs>
</svg>
